<svg width="41" height="32" viewBox="0 0 41 32" fill="none" xmlns="http://www.w3.org/2000/svg">
<path fill-rule="evenodd" clip-rule="evenodd" d="M38.5429 26.5551C38.5429 26.5551 7.36406 26.5454 7.35797 26.5456C6.74437 26.5394 6.41299 26.5749 5.5963 26.8524L0.548091 28.5665C0.209739 28.6805 -0.000319602 28.9245 3.65018e-07 29.2032C0.000321064 29.4791 0.215825 29.7295 0.545688 29.84C2.20133 30.4039 5.59606 31.5566 5.59606 31.5566C6.36038 31.8163 6.69168 31.8453 7.23472 31.8453L19.4558 31.8539C19.7875 31.8539 20.0564 31.6493 20.0564 31.3969C20.0564 31.1446 19.7875 30.9399 19.4558 30.9399C19.4558 30.9399 8.02611 30.9402 7.97662 30.9405V29.6615H34.515V30.9399H22.4381C22.1064 30.9399 21.8375 31.1446 21.8375 31.3969C21.8375 31.6493 22.1064 31.8539 22.4381 31.8539H38.543C39.8977 31.8539 41 31.0167 41 29.9877V28.4214C40.9999 27.3924 39.8977 26.5551 38.5429 26.5551ZM3.48523 28.5701V29.8383L2.90662 29.6418L2.90616 29.6416C2.47712 29.4959 2.04811 29.3502 1.61848 29.204L3.48523 28.5701ZM4.68647 28.1622V30.2465C5.12493 30.3954 6.59662 30.8864 6.77537 30.9176V27.4915C6.59662 27.5228 4.68647 28.1622 4.68647 28.1622ZM7.9767 28.7476V27.4686C8.02619 27.4689 8.07712 27.4691 8.13118 27.4691H34.5151V28.7476H7.9767ZM38.5429 30.9399C39.2354 30.9399 39.7987 30.5128 39.7987 29.9877V28.4213C39.7987 27.8963 39.2353 27.4691 38.5429 27.4691H35.7163V30.9399H38.5429Z" fill="black"/>
<path fill-rule="evenodd" clip-rule="evenodd" d="M1.06259 24.2697L19.9413 24.2679C20.2828 24.2679 20.5596 24.0604 20.5596 23.8045C20.5595 23.5486 20.2826 23.3412 19.9412 23.3412L1.23662 23.3429V4.43497H3.70863V19.9244C3.70863 20.345 4.16552 20.687 4.72719 20.687H30.3662C30.79 20.687 31.1583 20.5156 31.3048 20.2503C31.4508 19.9857 31.3541 19.6902 31.0459 19.4598L10.9531 4.43497H33.6949V19.127C33.6949 19.5599 34.1653 19.9121 34.7435 19.9121H37.469C38.7342 19.9121 39.7635 20.6812 39.7635 21.6266C39.7635 22.572 38.7342 23.3412 37.469 23.3412H22.78C22.4384 23.3412 22.1616 23.5486 22.1616 23.8045C22.1616 24.0604 22.4384 24.2679 22.78 24.2679H37.4689C39.4159 24.2679 41 23.083 41 21.6266V4.25538C41 2.79801 39.4159 1.61241 37.4689 1.61241H34.7434C34.1652 1.61241 33.6948 1.96381 33.6948 2.39577V3.50834H9.71374L5.34674 0.242769C5.03775 0.0117158 4.64178 -0.0597625 4.28736 0.0514397C3.93287 0.162765 3.70566 0.439165 3.70863 0.752384V3.50828H1.0625C0.476676 3.50828 0 3.86592 0 4.30554V23.4725C0 23.912 0.476676 24.2697 1.06259 24.2697ZM34.9315 2.53903H37.4689C38.7341 2.53903 39.7634 3.30892 39.7634 4.25531V19.6205C39.1458 19.2247 38.344 18.9853 37.4689 18.9853H34.9315V2.53903ZM29.6968 19.7604L4.94525 1.25174V19.7604H7.5978V19.1097C7.5978 18.8538 7.87464 18.6464 8.21611 18.6464C8.55758 18.6464 8.83442 18.8538 8.83442 19.1097V19.7604H11.4891V18.4973C11.4891 18.2415 11.766 18.034 12.1074 18.034C12.4489 18.034 12.7257 18.2415 12.7257 18.4973V19.7604H15.3782V19.1097C15.3782 18.8538 15.655 18.6464 15.9965 18.6464C16.338 18.6464 16.6148 18.8538 16.6148 19.1097V19.7604H19.2697V18.4973C19.2697 18.2415 19.5465 18.034 19.888 18.034C20.2295 18.034 20.5063 18.2415 20.5063 18.4973V19.7604H23.1588V19.1097C23.1588 18.8538 23.4355 18.6464 23.7771 18.6464C24.1186 18.6464 24.3954 18.8538 24.3954 19.1097V19.7604H29.6968Z" fill="black"/>
<path fill-rule="evenodd" clip-rule="evenodd" d="M16.6877 16.6854H10.4888C10.0471 16.6854 9.76179 16.4634 9.76172 16.1199V11.3048C9.76172 11.1231 9.76172 10.785 10.1646 10.6556C10.561 10.5283 10.8466 10.7517 11.055 10.9148L17.1918 15.68C17.4006 15.8421 17.6864 16.0641 17.5227 16.3722C17.3562 16.6854 16.9213 16.6854 16.6877 16.6854ZM15.7808 15.8145L10.8808 12.0097V15.8145H15.7808Z" fill="black"/>
</svg>
